<?xml version="1.0" encoding="iso-8859-1"?>
<!-- Generator: Adobe Illustrator 19.0.0, SVG Export Plug-In . SVG Version: 6.00 Build 0)  -->
<svg version="1.1" id="Capa_1" xmlns="http://www.w3.org/2000/svg" xmlns:xlink="http://www.w3.org/1999/xlink" x="0px" y="0px"
	 viewBox="0 0 512 512" style="enable-background:new 0 0 512 512;" xml:space="preserve">
<g>
	<g>
		<path d="M253.5,178.208c-24.813,0-45,20.187-45,45v60c0,8.271-6.729,15-15,15h-67.833v30H193.5c24.813,0,45-20.187,45-45v-60
			c0-8.271,6.729-15,15-15h67.833v-30H253.5z"/>
	</g>
</g>
<g>
	<g>
		<path d="M105.667,178.208H0v30h105.667c8.271,0,15,6.729,15,15s-6.729,15-15,15H45c-24.813,0-45,20.187-45,45v45h30v-45
			c0-8.271,6.729-15,15-15h60.667c24.812,0,45-20.187,45-45C150.667,198.395,130.48,178.208,105.667,178.208z"/>
	</g>
</g>
<g>
	<g>
		<path d="M479.793,178.208l-49.027,125.545l-49.027-125.545h-32.207l53.508,137.02l0.22,0.532
			c4.77,10.954,15.566,18.032,27.506,18.032s22.736-7.078,27.506-18.032l0.22-0.532L512,178.208H479.793z"/>
	</g>
</g>
<g>
</g>
<g>
</g>
<g>
</g>
<g>
</g>
<g>
</g>
<g>
</g>
<g>
</g>
<g>
</g>
<g>
</g>
<g>
</g>
<g>
</g>
<g>
</g>
<g>
</g>
<g>
</g>
<g>
</g>
</svg>
